<?xml version="1.0" standalone="no"?>
<!DOCTYPE svg PUBLIC "-//W3C//DTD SVG 1.1//EN" "http://www.w3.org/Graphics/SVG/1.1/DTD/svg11.dtd" >
<svg xmlns="http://www.w3.org/2000/svg" xmlns:xlink="http://www.w3.org/1999/xlink" version="1.1">
<metadata>
Created by FontForge 20170731 at Tue Aug 28 23:05:54 2018
 By Aleksey,,,
joannavu
</metadata>
<defs>
<font id="wolverins" horiz-adv-x="757" >
  <font-face 
    font-family="wolverins"
    font-weight="500"
    font-stretch="normal"
    units-per-em="1000"
    panose-1="2 0 6 3 0 0 0 0 0 0"
    ascent="800"
    descent="-200"
    x-height="498"
    cap-height="734"
    bbox="7.88889 -77.25 1587.5 762"
    underline-thickness="50"
    underline-position="-200"
    unicode-range="U+0020-F8FE"
  />
<missing-glyph horiz-adv-x="364" 
d="M66 33h199v600h-199v-600zM33 0v666h265v-666h-265z" />
    <glyph glyph-name=".notdef" horiz-adv-x="364" 
d="M66 33h199v600h-199v-600zM33 0v666h265v-666h-265z" />
    <glyph glyph-name=".null" horiz-adv-x="0" 
 />
    <glyph glyph-name="nonmarkingreturn" horiz-adv-x="333" 
 />
    <glyph glyph-name="space" unicode=" " horiz-adv-x="300" 
 />
    <glyph glyph-name="zero" unicode="0" 
d="M154 140q1 -6 2 -15q0 -17 3.5 -26t10.5 -12t17 -3.5t25 0.5q254 1 326 9q17 2 31.5 15t15.5 39q1 55 -3 223q-1 3 -1 7q-1 20 -12 27.5t-40 7.5q-22 0 -75 -1.5t-80 -2.5q-41 -1 -105 -2.5t-80 -1.5q-35 -1 -36 -47q-2 -54 1 -217zM673 494q6 -5 9 -37q1 -13 3 -57
q5 -107 1 -301q-1 -42 -30 -64t-65 -26q-125 -16 -440 -9q-74 -1 -117 -1q-6 0 -10.5 8t-0.5 10q22 14 28 31t6 46q0 2 -2 72.5t-2 123.5t3 114q2 43 30 66.5t62 25.5q223 11 430 8q85 -1 95 -10z" />
    <glyph glyph-name="one" unicode="1" horiz-adv-x="273" 
d="M202 46q3 -70 -1 -72q-2 -1 -8 1q-33 14 -60 44t-32 69q-9 81 -4 385q1 18 4.5 24t17.5 6q12 1 31 -1.5t27 -6.5q19 -7 21 -28q1 -33 1 -53.5t-1 -80.5t0 -109q0 -100 4 -178z" />
    <glyph glyph-name="two" unicode="2" horiz-adv-x="805" 
d="M682 203q0 -3 -27.5 -4.5t-54.5 -1.5h-28q-85 -4 -442 6q-1 -26 -1 -45q1 -49 20 -61q14 0 42.5 -0.5t56.5 -1t53 -0.5q115 -1 162 -2q165 2 201 1q18 0 23 -7t2.5 -15.5t1.5 -16.5q1 -3 3 -6t3 -5t4 -5l4.5 -4.5l5.5 -5.5l6 -6t7.5 -7t8.5 -8q8 -7 -9 -10q-6 -1 -13 -1
q-55 -2 -216 -1.5t-225 3.5q-70 2 -100 4q-47 4 -77 27q-49 25 -49 81q-1 40 -2 179q0 2 3 3h1q4 1 12 0q145 4 240 3q224 -2 267 -7q5 -1 9 -2q0 34 -1 65q-1 46 -39 47q-12 0 -104 2q-196 0 -265 14q-47 9 -80 32.5t-39 44.5q-1 5 21 6.5t68 1.5q103 1 236 -2
q82 -1 127 -3q43 -2 81 -4q37 -1 67.5 -24.5t32.5 -66.5q6 -125 3 -197z" />
    <glyph glyph-name="three" unicode="3" horiz-adv-x="642" 
d="M573 207q0 -148 -11 -180q-1 -4 -2 -6q-7 -14 -26 -18q-30 -6 -183.5 -3t-207.5 14q-47 10 -81.5 36.5t-39.5 49.5q-1 4 9.5 6t37.5 2.5t52 0t73.5 -1t81.5 -0.5q128 -1 193 -4q-2 37 -3 96q-83 -2 -183.5 2t-141.5 12q-47 10 -81 36.5t-40 49.5q-1 4 10 6t38 2.5t51.5 0
t73.5 -1t81 -0.5q127 -1 192 -4v98q-83 -2 -180.5 2t-137.5 12q-47 10 -81.5 36.5t-39.5 49.5q-1 4 9.5 6t37.5 2h52t73.5 -0.5t81.5 -0.5q221 -2 261 -10q17 -4 24 -18q2 -4 3 -12q1 -4 1 -12q1 -21 3 -248z" />
    <glyph glyph-name="four" unicode="4" horiz-adv-x="720" 
d="M547 441q-3 70 1 72q2 1 8 -2q33 -14 59 -44t31 -68q9 -81 0 -383q0 -18 -3.5 -23.5t-18.5 -6.5q-11 0 -30 2.5t-27 6.5q-19 8 -21 28v46.5t1 67t2 89.5q-21 -10 -43 -13q-86 -9 -408 -2q-16 0 -22.5 2.5t-8.5 10.5q-1 2 -1 4q-9 39 -11 80t1 102.5t3 66.5q1 17 4.5 23
t17.5 7q11 0 30 -2.5t28 -6.5q19 -7 20 -27q5 -67 3 -159q4 0 76 -1.5t124 -1.5q104 1 187 4q0 72 -2 128z" />
    <glyph glyph-name="five" unicode="5" horiz-adv-x="759" 
d="M57 205q-2 72 3 196q2 43 30 66.5t62 25.5q255 12 446 8h5q45 0 66.5 -1.5t19.5 -6.5q-5 -21 -40 -45t-84 -33q-84 -15 -312 -13q-42 -1 -60 -1q-35 -1 -36 -47q-1 -28 -1 -58q59 3 257 5q49 1 115.5 0t107.5 -2l42 -1q9 0 9 -3q-1 -139 -2 -179q0 -20 -7 -36
q-11 -28 -40 -50.5t-82 -26.5q-93 -7 -331 -7q-122 -2 -186 1q-8 0 -12.5 3t-1.5 8q23 33 27 47q3 8 1 16.5t1.5 15.5t15.5 7q35 1 85.5 -0.5t61.5 -1.5h11q51 2 189 3q38 0 132 1q22 4 30 20t8 47q1 18 0 45q-314 -8 -436 -6q-93 -3 -94 3z" />
    <glyph glyph-name="six" unicode="6" horiz-adv-x="774" 
d="M699 90q0 -43 -29 -66t-64 -24q-223 -8 -430 -2q-85 2 -95 12q-6 5 -8 37q-1 13 -2 57q-4 107 3 300q2 42 31 63.5t66 26.5q156 17 533 -2q-2 -3 -6.5 -8t-19.5 -18.5t-31.5 -23.5t-43.5 -19t-54 -10q-42 -2 -177.5 -1.5t-149.5 -2.5q-17 -2 -31.5 -15t-15.5 -39
q-1 -24 -1 -71q16 7 33 10q65 10 212 10t191 -7q40 -4 63.5 -36.5t25.5 -66.5q4 -60 0 -98v-6zM347 197q-34 1 -173 -1v-64q1 -3 1 -7q1 -19 12 -27t39 -8q22 -1 75.5 0t80.5 1q41 0 104.5 1t80.5 1q34 0 36 46v8v7q0 16 -11.5 29t-38.5 15h-9q-66 -2 -197 -1z" />
    <glyph glyph-name="seven" unicode="7" horiz-adv-x="653" 
d="M582 30q3 -70 -1 -72q-2 -1 -8 1q-33 15 -60 44.5t-32 68.5q-8 71 -5 326q-83 -1 -182 2.5t-140 12.5q-47 9 -81 35.5t-40 49.5q-1 4 10 6t38 2.5t51.5 0.5t73.5 -0.5t81 -1.5q221 -1 261 -10q17 -3 24 -17q3 -6 4 -17q1 -4 2 -9q1 -34 1 -54.5t-1 -80.5t0 -109
q0 -99 4 -178z" />
    <glyph glyph-name="eight" unicode="8" 
d="M585 221q-19 -8 -38 -12q-53 -10 -202 -13.5t-192 2.5q1 -27 1 -58q1 -6 2 -15q0 -17 3.5 -26t10.5 -12t17 -3.5t25 0.5q254 1 326 9q17 2 31.5 15t15.5 39v74zM583 304q-1 31 -1 66q-1 3 -1 7q-1 20 -12 27.5t-40 7.5q-22 0 -75 -1.5t-80 -2.5q-41 -1 -105 -2.5
t-80 -1.5q-35 -1 -36 -47q-1 -22 -1 -63q52 7 258 8q35 0 93 1t80 1zM673 494q6 -5 9 -37q1 -13 3 -57q5 -107 1 -301q-1 -42 -30 -64t-65 -26q-125 -16 -440 -9q-74 -1 -117 -1q-6 0 -10.5 8t-0.5 10q22 14 28 31t6 46q0 2 -2 72.5t-2 123.5t3 114q2 43 30 66.5t62 25.5
q223 11 430 8q85 -1 95 -10z" />
    <glyph glyph-name="nine" unicode="9" 
d="M213 299q66 3 197 3q34 0 173 4q-1 30 -1 64q-1 3 -1 7q-1 20 -12 27.5t-40 7.5q-22 0 -75 -1.5t-80 -2.5q-41 -1 -105 -2.5t-80 -1.5q-35 -1 -36 -47v-8v-7q0 -16 12 -29t39 -14h9zM56 404q0 43 28.5 66.5t63.5 25.5q223 11 430 8q85 -1 95 -10q6 -5 9 -37q1 -13 3 -57
q5 -107 1 -301q-1 -42 -30 -64t-65 -26q-70 -9 -202.5 -10.5t-234.5 1.5l-97 2q2 4 6.5 9t19.5 18.5t31.5 24t43 19.5t54.5 11q41 2 168 4t158 5q17 2 31.5 15t15.5 39v71q-17 -6 -34 -10q-54 -11 -211.5 -13.5t-191.5 4.5q-40 4 -63.5 36t-26.5 66q-5 59 -2 97v6z" />
    <glyph glyph-name="A" unicode="A" horiz-adv-x="1151" 
d="M1079 -7q6 -9 -1.5 -17.5t-15.5 -5.5q-10 3 -33 12t-39 13q-25 6 -56 7.5t-47.5 7t-32.5 25.5q-24 33 -78 110.5t-131 189.5t-100 146q-10 8 -15.5 4t-22.5 -26q-10 -13 -16 -20q-65 -80 -219.5 -263.5t-167.5 -194.5q-10 -8 -15 31q-7 67 2 118q2 9 4 12
q109 155 441 571q4 7 8 8q8 1 102 -127t251 -347.5t182 -253.5z" />
    <glyph glyph-name="B" unicode="B" horiz-adv-x="871" 
d="M193 106q286 -2 346 -1q75 2 96 20.5t20 77.5q-1 52 -26 78.5t-89 26.5q-8 0 -73 3q-194 0 -237 -1q-26 -1 -33 -13.5t-6 -50.5q2 -98 2 -140zM63 327q2 220 -1 323q-3 12 -8 17q-4 4 -9 8t-8 6.5t-5 7.5q-17 28 13 29q118 5 334 6.5t369 -7.5q24 -3 36.5 -22.5
t15.5 -66.5q4 -68 1 -131.5t-11 -81.5q-7 -13 -46 -53q36 -38 42 -50q9 -18 11.5 -82t-1.5 -132q-2 -48 -15 -68t-37 -22q-152 -9 -368.5 -8t-333.5 7q-30 1 -14 29q3 5 5.5 7.5t8 6.5t9.5 8q10 9 12 38q-1 76 0 231zM544 419q64 0 88.5 26t25.5 78q2 59 -19 77.5t-96 19.5
q-19 0 -320 2q-10 -1 -15.5 -6.5t-7 -10t-3.5 -14.5q-5 -37 -5 -143q4 -25 30 -25q74 1 322 -4z" />
    <glyph glyph-name="C" unicode="C" horiz-adv-x="1028" 
d="M51 -2q-8 0 -15 11.5t-1 15.5q32 20 41 44.5t8 65.5q0 3 -3 105t-2.5 178.5t4.5 164.5q2 62 43 95.5t90 36.5h11q68 7 242 9q232 5 375 3q59 0 87.5 -2.5t26.5 -9.5q-8 -31 -58.5 -66t-120.5 -49q-63 -11 -222.5 -16t-278.5 -2h-4q-22 -1 -36 -15t-15 -52q-3 -88 3 -373
q92 7 334 8q49 0 121 1t108.5 1.5t76.5 -0.5t56 -3.5t14 -8.5q-8 -33 -58.5 -71t-120.5 -52q-71 -14 -269 -19t-278 1q-101 -1 -159 -1z" />
    <glyph glyph-name="D" unicode="D" horiz-adv-x="1062" 
d="M843 217q2 81 -3 319q-2 6 -2 13q-1 29 -17.5 40.5t-57.5 10.5q-32 0 -109 -2t-116 -3q-59 -2 -151.5 -4t-116.5 -3q-32 -1 -44 -27q-5 -277 -3 -364q1 -39 15 -53.5t37 -14.5q23 -1 122 -3q294 3 379 12q25 3 46 22t21 57zM46 2q-8 0 -15 11.5t-1 15.5q49 33 53 93
q0 3 -1 6q-6 153 -1 358v103q0 13 2 25q-2 27 -12.5 46.5t-35.5 35.5q-6 4 0.5 15.5t14.5 11.5q65 0 172 -1q193 11 339 8q157 6 275 1q63 -2 105 -46t46 -92q1 -17 1 -33q7 -171 2 -413q0 -32 -13.5 -57t-35 -39.5t-44 -23t-45.5 -11.5q-216 -28 -761 -14h-45z" />
    <glyph glyph-name="E" unicode="E" horiz-adv-x="952" 
d="M501 442q48 1 120.5 1.5t109.5 1t77 0t55.5 -3.5t14.5 -9q-8 -33 -58.5 -71.5t-121.5 -52.5q-80 -16 -307.5 -20.5t-271.5 5.5q-29 4 -39 25q-8 15 -8.5 43.5t6.5 41.5q11 20 36 25q59 13 387 14zM506 725q48 0 120.5 1t109.5 1.5t77 -0.5t55.5 -3.5t14.5 -8.5
q-8 -33 -58.5 -71.5t-121.5 -52.5q-80 -16 -307.5 -20.5t-271.5 5.5q-29 4 -39 25q-8 15 -8.5 43.5t6.5 40.5q11 20 36 26q59 12 387 14zM492 142q49 0 121 1t109 1.5t77 -0.5t55.5 -4t14.5 -8q-8 -34 -58.5 -72t-121.5 -52q-79 -17 -307 -21t-272 5q-29 5 -39 25
q-7 16 -8 44.5t6 40.5q11 20 36 25q59 13 387 15z" />
    <glyph glyph-name="F" unicode="F" horiz-adv-x="949" 
d="M513 461q47 0 116.5 1t104.5 1.5t73.5 -0.5t53.5 -3.5t14 -8.5q-8 -32 -56.5 -69t-116.5 -51q-57 -11 -196.5 -16.5t-257.5 -3.5v-20q0 -146 5 -261q5 -99 0 -104q-3 -3 -12 1q-49 21 -88 65t-46 100q-14 119 -6 562q0 22 3 29q1 8 4 13q10 19 34 24q57 12 374 14
q47 0 116.5 1t105 1.5t74 -0.5t54 -3.5t14.5 -8.5q-8 -32 -57 -69t-117 -51q-57 -11 -197 -16.5t-260 -3.5q0 -19 -1 -128q91 4 265 5z" />
    <glyph glyph-name="G" unicode="G" horiz-adv-x="1107" 
d="M539 243q-28 -1 45 67q70 64 93 72q58 7 161.5 6t155.5 -8q39 -4 42 -27q3 -46 0 -122t-7 -97q-9 -34 -63.5 -73t-131.5 -53q-77 -15 -292.5 -20t-302.5 2q-105 -1 -167 -1q-8 0 -15 11.5t-1 15.5q32 20 41.5 45t8.5 67q0 3 -3 107t-2.5 182t4.5 167q3 63 44 97.5
t91 37.5h12q69 7 246 9q237 5 382 3q60 0 89.5 -2.5t27.5 -9.5q-8 -31 -59.5 -67t-123.5 -50q-64 -12 -226.5 -17t-284.5 -2h-3q-23 0 -37 -14.5t-16 -53.5q-2 -90 3 -380q99 7 370 9q22 0 206 2h2h8q18 1 26 7q7 5 10 15q5 69 -2 75q-14 12 -331 0z" />
    <glyph glyph-name="H" unicode="H" horiz-adv-x="997" 
d="M779 624q-3 96 2 101q2 3 12 -1q47 -21 84.5 -64t43.5 -98q13 -116 1 -548q-1 -25 -6 -33t-26 -9q-16 -1 -43 3t-39 9q-17 7 -22.5 16.5t-6.5 23.5q-1 46 -1 66.5t1.5 96t2.5 127.5q-30 -14 -61 -17q-108 -12 -497 -5q1 -127 6 -226q4 -97 -1 -102q-2 -2 -12 2
q-47 20 -85 62.5t-45 97.5q-14 116 -6 548q1 25 6 33.5t25 9.5q17 1 44 -3t39 -9q17 -6 22.5 -15.5t6.5 -23.5q2 -25 0 -228q12 -1 114 -2.5t177 -0.5q149 0 268 4q-1 104 -4 185z" />
    <glyph glyph-name="I" unicode="I" horiz-adv-x="363" 
d="M291 61q4 -100 -1 -105q-2 -3 -12 1q-49 21 -88.5 65t-46.5 101q-15 120 -6 567q0 26 5 34.5t27 9.5q17 1 45 -2.5t41 -9.5q17 -7 23 -16.5t7 -24.5q2 -49 1.5 -79t-1.5 -118t0 -161q0 -146 6 -262z" />
    <glyph glyph-name="J" unicode="J" horiz-adv-x="759" 
d="M684 618q0 -24 2 -90.5t3 -114t0.5 -123.5t-3.5 -149q-2 -60 -39 -95t-86 -43q-10 -3 -28 -4t-45.5 -1.5t-53 -0.5h-68t-74.5 -1q-35 0 -88 -1t-79.5 -1t-56 0.5t-41 2.5t-10.5 7q6 27 48 57.5t95 43.5q11 2 26 5q7 2 16 3q95 11 211 13q25 1 49 1h1q24 1 48.5 23.5
t25.5 63.5q1 43 0.5 106.5t-2 142t-2.5 144t-3 111.5l-1 44q7 -4 17 -10.5t36.5 -25t47 -35.5t37.5 -38t17 -35z" />
    <glyph glyph-name="K" unicode="K" horiz-adv-x="1084" 
d="M89 618q-1 44 -8 50q-3 2 -8.5 6t-7 5.5l-4.5 4.5t-5 7q-17 30 15 31q93 4 162 -4q7 -1 3 -88q0 -49 -3 -205q3 -14 12.5 -18t26.5 4.5t39 30.5l6 6q52 51 109 96q103 83 196 139q103 61 183 40q33 -8 36 -23q1 -6 -5 -9q-27 -15 -92 -62t-135.5 -100.5t-87.5 -65.5
q-3 -4 -8 -8q-25 -19 -26 -30t24 -33h1l1 -1q13 -9 209 -169t259 -205q17 -13 28 -19q6 -3 5 -7q1 -6 -9 -12.5t-30.5 -10t-46.5 -2.5t-61.5 11t-71.5 29q-77 40 -196 144q-55 48 -131 94q-53 25 -109.5 39.5t-83.5 5.5q-25 -9 -34.5 -27t-12.5 -58q0 -29 -1 -89t-1 -84
q0 -14 -10 -18t-22.5 -2t-23.5 -1q-5 -2 -9 -3t-9 -3.5l-7 -3.5t-8.5 -4.5t-8.5 -5t-11.5 -7t-12.5 -7.5q-7 -4 -11 1t-5 16q-5 70 1 403v222z" />
    <glyph glyph-name="L" unicode="L" horiz-adv-x="1004" 
d="M95 -14q-8 0 -15 11.5t-1 15.5q34 22 42.5 43t8.5 71q0 242 -2 458q0 6 1 11q-1 22 -2 49q0 17 -2.5 36t-4 30t-1 20.5t4.5 13.5q5 5 13.5 -0.5t24.5 -14t34 -7.5q6 0 17 1t20.5 2.5t19 2.5t15 0.5t5.5 -3.5q5 -127 1 -252q3 -105 12 -341q260 2 271 2q150 3 268 9
q103 6 108 1q3 -3 -1 -11q-19 -39 -88.5 -82.5t-129.5 -52.5q-116 -17 -443 -10q-114 -3 -176 -3z" />
    <glyph glyph-name="M" unicode="M" horiz-adv-x="1642" 
d="M1570 -2q7 -8 -0.5 -17t-15.5 -7q-11 3 -34 11.5t-39 11.5q-26 6 -57.5 6.5t-48 5.5t-32.5 25q-39 49 -195 261.5t-175 237.5q-11 14 5.5 96t30.5 84q8 1 107 -124t263.5 -341t190.5 -250zM1094 3q7 -8 -0.5 -17t-15.5 -6q-10 2 -33.5 10.5t-39.5 12.5q-26 6 -57 6t-48 5
t-33 25q-25 32 -81.5 108.5t-137.5 186.5t-105 143q-10 8 -15.5 4.5t-22.5 -27.5q-10 -13 -16 -21q-62 -82 -212 -271t-163 -201q-10 -8 -15 33q-10 69 -1 118q1 8 3 11q104 159 425 588q4 7 8 8q8 1 106.5 -124.5t263 -341.5t190.5 -250z" />
    <glyph glyph-name="N" unicode="N" horiz-adv-x="1069" 
d="M94 567q1 32 -2 54t-11 34t-12 16t-14 10t-10.5 21.5t11.5 17.5q30 5 94.5 2t90.5 -10q25 -7 119.5 -93t225 -213t162.5 -156q37 -36 59.5 -29t25.5 57q11 254 5 380q0 16 -2.5 30.5t-3.5 21t-1 12t4 9.5q7 3 13 0.5t26 -8t41 -5.5q6 0 17 1.5t20.5 3.5t18.5 3.5t14.5 1
t5.5 -3.5q6 -79 8 -387.5t-6 -332.5q-3 -5 -8.5 -7t-15.5 -2t-16 1t-18.5 3t-13.5 2q-9 2 -36 3.5t-36 5.5q-16 6 -240.5 198.5t-307.5 275.5q-23 20 -36 10t-13 -36q0 -6 -1 -10q-1 -78 -1 -145q1 -143 6 -257q5 -97 0 -103q-3 -3 -13 2q-41 18 -87 85t-55 126
q-18 110 -6 401q-1 6 -1 10z" />
    <glyph glyph-name="O" unicode="O" horiz-adv-x="1076" 
d="M242 200q2 -9 2 -21q1 -24 6 -37t14.5 -17.5t24.5 -4.5h35q365 2 469 13q24 3 44.5 22t21.5 56q2 79 -4 319q-1 5 -1 10q-2 29 -18 40t-56 11q-32 -1 -108.5 -3t-115.5 -3q-58 -1 -149.5 -3.5t-115.5 -2.5q-22 -1 -36 -15t-15 -52q-2 -77 2 -312zM986 708q9 -7 13 -53
q1 -18 4 -81q7 -154 1 -432q0 -31 -13.5 -56t-35 -39.5t-43 -23t-44.5 -11.5q-179 -23 -631 -12q-105 -1 -168 -1q-8 0 -14.5 11t-0.5 15q31 20 40 44.5t8 65.5q0 3 -2.5 104t-2.5 177t4 164q3 61 43 94.5t89 36.5q319 16 616 12q122 -2 137 -15z" />
    <glyph glyph-name="P" unicode="P" horiz-adv-x="1014" 
d="M141 402l-1 225q-2 35 -12 45q-5 4 -10.5 8t-8.5 7.5t-6 7.5q-18 31 15 32q128 6 364.5 7.5t403.5 -8.5q26 -3 40 -24.5t16 -72.5q5 -75 2 -144t-12 -88q-7 -13 -44 -51.5t-50 -47.5q-12 -8 -30.5 -11t-66.5 -5q-20 -1 -188.5 -1h-232.5q-45 1 -43 -69q3 -121 2 -180
q0 -14 -10 -18.5t-22.5 -2t-23.5 -1.5q-6 -1 -10 -2.5t-8.5 -3.5t-7 -3t-9 -5t-9 -5.5t-11.5 -7t-13 -7.5q-6 -4 -10.5 1t-5.5 16q-4 71 2 409zM311 623q-27 -3 -27 -34q0 -49 -2 -187q359 -1 380 -1q71 0 98 28.5t28 85.5q1 44 -8 64.5t-35.5 30t-83.5 10.5q-20 1 -350 3z
" />
    <glyph glyph-name="Q" unicode="Q" horiz-adv-x="1278" 
d="M827 146q-19 15 -42 34q-39 32 -85.5 76.5t-54.5 51.5q-18 13 21 21q58 12 122 5q16 -2 21 -5q12 -8 62 -48q-1 92 -5 260q-1 4 -1 10q-1 29 -17.5 40t-57.5 11q-32 0 -109.5 -2.5t-116.5 -3.5q-59 -1 -151.5 -3.5t-116.5 -2.5q-22 -1 -36.5 -15t-15.5 -53q-2 -78 2 -315
q2 -9 2 -22q1 -24 6 -37t15 -17.5t25 -5t35 0.5q369 2 474 13q12 2 24 7zM999 721q9 -8 12 -55q2 -17 5 -82q6 -151 2 -420q149 -119 185 -140q15 -8 -7 -20q-42 -23 -122 -4q-44 10 -89 33q-11 6 -24 14q-35 -24 -82 -30q-206 -27 -732 -14h-75q-8 0 -15 11.5t-1 15.5
q32 20 41 44.5t8 66.5q0 3 -3 105t-2.5 179t4.5 166q2 62 43 96t90 36q323 16 623 13q123 -2 139 -15z" />
    <glyph glyph-name="R" unicode="R" horiz-adv-x="1127" 
d="M113 398v227q-2 35 -13 45q-5 4 -10.5 8t-8.5 7t-6 8q-18 31 15 33q129 5 367 6.5t406 -8.5q27 -2 40.5 -24t16.5 -74q4 -75 1.5 -144.5t-12.5 -88.5q-6 -13 -43.5 -51.5t-50.5 -47.5q-12 -8 -30.5 -11t-67.5 -5q-3 -1 -10 -1q-4 -7 0.5 -18t14.5 -18q8 -5 150 -116
t181 -133q15 -9 -7 -20q-43 -23 -123 -4q-44 10 -89 33q-62 32 -200 147q-39 33 -85.5 77.5t-54.5 50.5h-1q-147 0 -199 1q-45 0 -44 -70q3 -122 3 -181q-1 -14 -11 -18.5t-22.5 -2.5t-23.5 -1q-5 -2 -9.5 -3t-9 -3.5t-7 -3.5t-9 -4.5t-9 -5t-11.5 -7.5t-13 -8
q-7 -4 -11 1.5t-5 16.5q-5 71 1 411zM258 586q0 -49 -2 -188q361 -1 382 -1q71 0 98 28.5t29 85.5q1 45 -8 66t-35.5 30.5t-84.5 10.5q-20 0 -352 2q-27 -3 -27 -34z" />
    <glyph glyph-name="S" unicode="S" horiz-adv-x="1104" 
d="M102 299q-3 40 -2.5 97t6.5 193q2 63 43.5 97.5t92.5 37.5q167 8 368.5 11t289.5 1h7q66 0 98 -2.5t30 -9.5q-8 -31 -60 -66.5t-124 -48.5q-57 -10 -195.5 -15t-265.5 -4q-62 -2 -88 -2q-24 -1 -38 -15.5t-15 -53.5q-1 -42 -2 -86q87 5 379 8q74 1 171.5 0t159.5 -3
l61 -1q14 -1 14 -6q-2 -205 -3 -263q-1 -30 -12 -54q-15 -41 -57.5 -74t-121.5 -39q-137 -11 -489 -11q-180 -3 -274 2q-13 0 -19 4.5t-2 11.5q3 3 9.5 13t8 12t6 8.5t6 9t4 8t4 9.5t2.5 9q4 12 1.5 24.5t2.5 23t22 10.5q53 1 127 -0.5t90 -1.5q8 0 16 -1q76 3 279 4
q56 0 196 2q32 5 43.5 29.5t12.5 68.5q1 28 0 68q-466 -13 -645 -10q-137 -4 -137 5z" />
    <glyph glyph-name="T" unicode="T" horiz-adv-x="949" 
d="M536 44q4 -99 0 -105q-3 -3 -13 1q-49 21 -88 65t-46 101q-12 100 -8 461q-188 -3 -238 5q-28 5 -37 25q-8 15 -8.5 42.5t6.5 39.5q10 19 34 24q58 13 376 14q47 1 117 1.5t106 1t74.5 0t54 -3.5t14.5 -8q-8 -33 -57 -70t-118 -51q-50 -10 -173 -16q-2 -264 -2 -266
q1 -146 6 -261z" />
    <glyph glyph-name="U" unicode="U" horiz-adv-x="1149" 
d="M133 731q10 -3 32.5 -8.5t36.5 -10.5t14 -11q1 -29 -2 -218t-1 -260q1 -40 20.5 -59.5t44.5 -21.5q111 -12 502 -14q4 0 16.5 -0.5t15.5 0t12 1t11.5 1.5t9 3t8 5.5t5 8.5t5 11.5t2.5 15.5q0 27 1.5 90.5t1.5 99.5q1 50 1.5 125t1 113t2 79.5t5 58t9.5 15.5
q35 -10 74.5 -63t52.5 -126q19 -103 11 -468q7 -47 52 -75q7 -5 -0.5 -17t-16.5 -12q-60 0 -162 1q-505 -7 -701 18q-24 3 -47.5 12t-46.5 24.5t-37.5 42t-14.5 59.5q-6 296 1 459q3 67 5 86q4 53 12 60q4 3 12 0t24 -11.5t28 -13.5z" />
    <glyph glyph-name="V" unicode="V" horiz-adv-x="1142" 
d="M39 716q-6 9 1.5 18t16.5 7q10 -3 34 -12t40 -13q27 -6 59.5 -6.5t50 -6t33.5 -26.5q26 -33 84 -112.5t140.5 -194t107.5 -148.5q10 -8 16 -4.5t23 27.5q10 13 17 22q65 84 221.5 278.5t169.5 206.5q10 8 16 -34q9 -70 0 -122q-1 -9 -3 -12q-109 -163 -445 -604
q-4 -7 -8 -8q-8 -1 -109 129.5t-269.5 355t-195.5 259.5z" />
    <glyph glyph-name="W" unicode="W" horiz-adv-x="1656" 
d="M36 724q-7 9 1 18t16 7q11 -3 35.5 -12t41.5 -13q27 -6 60 -6.5t50.5 -6t33.5 -27.5q41 -52 203 -276.5t183 -251.5q10 -14 -7.5 -100.5t-33.5 -88.5q-8 -1 -111 132t-274 361zM536 714q-7 9 1 18t16 7q11 -3 35.5 -12t41.5 -13q27 -6 60 -6.5t50.5 -6t33.5 -26.5
q27 -34 85.5 -115t142.5 -197.5t110 -151.5q10 -8 16 -4t24 28q10 14 17 22q66 86 225 283.5t173 209.5q10 9 16 -34q9 -71 0 -123q-1 -10 -3 -13q-112 -166 -452 -614q-5 -8 -9 -8q-8 -1 -111 131.5t-274 361t-198 263.5z" />
    <glyph glyph-name="X" unicode="X" horiz-adv-x="1052" 
d="M983 755q2 0 -45.5 -55t-129.5 -146t-167 -184q262 -234 299 -277q16 -23 8.5 -49t-31 -47t-46.5 -22q-33 -1 -336 281q-267 -284 -291 -283q-20 2 -48.5 20.5t-44.5 45t-1 45.5q51 64 267 282q-64 60 -189 179.5t-166 157.5q-9 9 -2.5 20t16.5 10q12 -1 39 -6t46 -7
q14 0 34.5 -1t27 -1.5t17.5 -2.5t17 -6.5t15 -11t22 -17.5q17 -16 231 -207q164 161 220 199q71 49 138.5 69t99.5 14z" />
    <glyph glyph-name="Y" unicode="Y" horiz-adv-x="1089" 
d="M91 716q-9 9 -2 20t16 10q13 -1 40 -7t46 -7q14 -2 35 -3t27 -2t17.5 -3t17.5 -6.5t15 -11t21 -18.5q33 -31 114 -104t117 -107q166 156 223 193q73 48 141 67t101 12q5 -1 -176 -195t-373 -386.5t-212 -190.5t-48.5 21.5t-44 46.5t-0.5 46q55 65 280 282q-43 38 -100 93
t-137.5 135t-117.5 115z" />
    <glyph glyph-name="Z" unicode="Z" horiz-adv-x="911" 
d="M166 579q-99 -3 -103 2q-2 2 2 10q20 34 87 71t126 44q94 11 253.5 15t251.5 1q40 -1 42 -49q1 -14 -3.5 -37.5t-9.5 -34.5q-4 -8 -8 -13q-20 -27 -105 -100.5t-209 -174.5t-145 -119q-35 -29 -28.5 -46.5t55.5 -19.5q213 -11 368 -9q16 0 36.5 1t31 1.5t20 -0.5t13.5 -4
t-16 -25t-57 -50t-72 -40q-34 -13 -303.5 -11.5t-288.5 16.5q-3 2 -5 5t-2.5 8t-0.5 8.5t1 9.5t1.5 8.5t2 8.5t1.5 8q2 6 4 27t5 28q6 13 196.5 185t271.5 235q20 18 10.5 28.5t-34.5 10.5q-8 0 -13 2q-63 1 -119 2q-144 1 -257 -2z" />
    <glyph glyph-name="a" unicode="a" horiz-adv-x="815" 
d="M743 -4q5 -6 -0.5 -12t-11.5 -5q-7 2 -22.5 8.5t-26.5 9.5q-18 4 -39.5 5t-33 5t-21.5 18q-8 11 -214 308q-7 6 -10.5 3.5t-16.5 -18.5q-6 -9 -11 -14q-45 -55 -151.5 -182t-116.5 -135q-6 -5 -9 22q-6 53 2 85q1 3 1 5q76 107 305 395q3 5 6 5q5 1 70.5 -87.5
t174 -240.5t125.5 -175z" />
    <glyph glyph-name="b" unicode="b" horiz-adv-x="686" 
d="M188 71q202 -1 244 0q53 0 67.5 13t13.5 55q-1 37 -18 55.5t-63 18.5q-5 0 -51 2q-136 0 -167 -1q-18 0 -23 -9t-4 -35q1 -70 1 -99zM97 226q1 155 -1 228q-2 9 -5 12t-6.5 5.5t-6 4.5t-3.5 5q-12 20 9 21q83 3 235 4t260 -5q17 -2 26 -16t10 -47q6 -122 -7 -149
q-4 -10 -32 -38q25 -26 30 -35q13 -28 7 -151q-2 -33 -11 -47t-26 -16q-107 -6 -259.5 -5.5t-234.5 4.5q-21 1 -10 21q2 3 4 5t5.5 4.5t6.5 5.5q7 7 9 27q-1 53 0 162zM435 291q45 0 62.5 18.5t18.5 55.5q1 41 -14 54t-68 14q-13 0 -225 1q-10 -1 -13 -6t-5 -16
q-3 -26 -3 -100q2 -18 20 -18q53 1 227 -3z" />
    <glyph glyph-name="c" unicode="c" horiz-adv-x="755" 
d="M57 0q-6 0 -10.5 8t-0.5 11q22 14 28 31t5 45q0 2 -1.5 72.5t-1.5 123.5t3 115q2 42 30 65.5t62 25.5h8q46 5 167 6q161 4 260 2q41 0 61 -1.5t18 -6.5q-5 -21 -40 -45.5t-84 -33.5q-44 -9 -154.5 -12t-192.5 -1h-3q-34 -1 -35 -47q-2 -61 2 -258q64 5 231 6q34 0 84 0.5
t75.5 0.5h53t38.5 -2t10 -6q-6 -23 -41 -49.5t-83 -36.5q-50 -10 -186.5 -13.5t-192.5 1.5q-70 -1 -110 -1z" />
    <glyph glyph-name="d" unicode="d" horiz-adv-x="764" 
d="M592 151q1 56 -3 220q-1 4 -1 9q-1 20 -12 28t-39 8q-22 -1 -75.5 -2t-80.5 -2q-41 -1 -104.5 -2.5t-80.5 -2.5q-22 0 -30 -18q-4 -192 -2 -252q1 -46 36 -47q16 0 84 -2q203 2 262 9q16 1 30.5 14.5t15.5 39.5zM41 3q-5 0 -10 7.5t-1 10.5q34 23 37 64v4q-5 107 -1 248
v71q0 9 1 17q-3 37 -33 57q-4 3 0.5 10.5t9.5 7.5h119q133 7 234 6q109 3 190 0q44 -2 73 -32t31 -63q1 -12 1 -23q4 -118 1 -285q0 -42 -29.5 -64t-65.5 -27q-149 -19 -526 -9h-31z" />
    <glyph glyph-name="e" unicode="e" horiz-adv-x="689" 
d="M355 310q34 0 84 0.5t75.5 1t53 0t38.5 -2.5t10 -6q-6 -23 -41 -49.5t-83 -36.5q-55 -11 -212.5 -14t-188.5 4q-19 3 -26 17q-5 10 -5.5 30t3.5 28q8 14 25 18q41 9 267 10zM359 505q33 0 83 1t75.5 1t53 -0.5t38.5 -2.5t10 -6q-5 -23 -40 -49.5t-84 -36.5
q-55 -11 -212 -14t-188 4q-20 3 -27 17q-5 11 -5.5 30.5t4.5 28.5q7 14 24 17q41 9 268 10zM349 102q34 0 84 1t75.5 1t53 -0.5t38.5 -2.5t10 -6q-6 -23 -41 -49.5t-83 -36.5q-56 -11 -213 -13.5t-188 3.5q-19 3 -26 17q-6 11 -6 30.5t4 28.5q8 14 25 17q41 9 267 10z" />
    <glyph glyph-name="f" unicode="f" horiz-adv-x="693" 
d="M361 307q33 0 82.5 0.5t75 1t53 0t38 -2.5t10.5 -6q-6 -23 -40.5 -49.5t-83.5 -36.5q-41 -8 -141 -12t-184 -2v-15q0 -104 4 -187q3 -73 -1 -75q-2 -1 -8 2q-35 15 -63 46t-33 72q-10 84 -4 402q0 15 2 21q1 5 2 9q8 13 25 17q41 9 267 10q34 0 84 1t75.5 1t53 -0.5
t38.5 -2.5t10 -6q-6 -23 -40.5 -49.5t-83.5 -36.5q-41 -8 -141.5 -11.5t-185.5 -2.5q0 -14 -1 -92q65 3 190 4z" />
    <glyph glyph-name="g" unicode="g" horiz-adv-x="758" 
d="M350 173q-22 -1 38 52q45 41 55 42q40 5 110.5 4t105.5 -5q27 -3 28 -19q3 -31 1 -82.5t-5 -65.5v-1q-6 -23 -43.5 -49t-89.5 -36q-53 -10 -199.5 -13.5t-205.5 0.5h-113q-6 0 -10.5 7.5t-0.5 10.5q22 14 28 31t6 46q0 2 -2 72.5t-2 123.5t3 114q2 43 30 66.5t62 24.5
q4 0 8 1q47 4 168 5q160 4 260 3q41 0 60.5 -2t18.5 -6q-6 -22 -41 -46.5t-83 -33.5q-44 -8 -154.5 -11.5t-193.5 -1.5h-2q-35 -1 -36 -46q-2 -61 2 -259q67 5 252 6q14 0 140 1h1q3 0 6 1q12 0 17 4t7 11q3 47 -1 51q-10 8 -225 0z" />
    <glyph glyph-name="h" unicode="h" horiz-adv-x="732" 
d="M559 440q-3 70 1 72q2 1 8 -2q33 -14 59 -44t31 -69q9 -80 0 -382q0 -18 -3.5 -23.5t-18.5 -6.5q-11 -1 -30 2t-27 7q-19 8 -20 28q-1 31 -1 45.5t1 67.5t2 89q-21 -10 -43 -12q-75 -8 -347 -4q1 -88 4 -157q3 -70 -1 -72q-2 0 -8 2q-33 14 -59.5 44t-30.5 68
q-10 81 -5 382q1 18 4.5 23.5t17.5 6.5q11 1 30 -1.5t28 -6.5q19 -7 20 -27q1 -17 0 -160q8 0 79 -1t124 -1q104 0 187 3q0 73 -2 129z" />
    <glyph glyph-name="i" unicode="i" horiz-adv-x="273" 
d="M202 46q3 -70 -1 -72q-2 -1 -8 1q-33 14 -60 44t-32 69q-9 81 -4 385q1 18 4.5 24t17.5 6q12 1 31 -1.5t27 -6.5q19 -7 21 -28q1 -33 1 -53.5t-1 -80.5t0 -109q0 -100 4 -178z" />
    <glyph glyph-name="j" unicode="j" horiz-adv-x="529" 
d="M456 414q0 -2 2 -85.5t1.5 -106t-2.5 -128.5q-1 -40 -26 -63.5t-57 -29.5q-8 -1 -20 -2t-30.5 -1.5t-35 -0.5h-45.5h-50q-24 0 -59.5 -0.5t-53.5 -1t-37.5 0t-27.5 2t-7 4.5q4 18 32 38.5t64 29.5q7 1 18 3q4 1 10 2q64 8 142 9q17 1 33 1q17 0 33 15.5t17 42.5
q1 29 0.5 71.5t-1 95.5t-1.5 96.5t-2 74.5l-1 30q12 -7 29 -18t46 -37t29 -42z" />
    <glyph glyph-name="k" unicode="k" horiz-adv-x="807" 
d="M103 427q0 30 -5 34q-14 11 -17 16q-12 21 10 22q64 2 111 -3q5 -1 2 -61q0 -33 -2 -140q2 -9 8.5 -12t18 3t26.5 21q2 2 5 4q35 35 74 66q71 56 134 95q75 45 130 26q20 -7 20 -16q0 -3 -3 -5q-19 -10 -63 -42t-92.5 -68.5t-60.5 -45.5q-2 -3 -6 -5q-17 -13 -17.5 -21
t17.5 -22v-1h1q9 -6 143 -115.5t177 -140.5q12 -9 20 -13q3 -2 3 -5q1 -8 -17.5 -14t-55.5 -1t-77 25q-53 28 -135 99q-37 33 -89 65q-36 17 -75 27t-57 3q-17 -6 -23.5 -18.5t-8.5 -39.5q0 -20 -1 -61t-1 -57q0 -10 -6.5 -13t-15 -1.5t-16.5 -0.5q-14 -4 -45 -23
q-5 -3 -8 0.5t-3 10.5q-3 48 1 276v1z" />
    <glyph glyph-name="l" unicode="l" horiz-adv-x="706" 
d="M68 -1q-6 0 -11 7.5t0 10.5q23 15 28.5 29t5.5 48q0 164 -1 310q0 4 1 8q-1 14 -2 33q0 13 -2.5 31.5t-2.5 23t3 12.5q4 4 9.5 0.5t16.5 -9.5t23 -6q6 0 21 2.5t21.5 2.5t9.5 -3q4 -85 1 -170q2 -71 8 -230q176 1 183 1q102 2 182 6q72 4 74 -1q0 -1 -2 -6
q-13 -26 -59.5 -55.5t-88.5 -35.5q-78 -12 -299 -7q-78 -2 -119 -2z" />
    <glyph glyph-name="m" unicode="m" horiz-adv-x="1128" 
d="M1056 9q5 -6 0 -12t-11 -4q-7 1 -23 7t-27 9q-18 4 -39.5 4t-33 3.5t-22.5 17.5q-27 33 -134.5 179.5t-120.5 164.5q-7 9 4 65.5t21 57.5q6 1 74 -85.5t181.5 -235t130.5 -171.5zM729 13q4 -6 -1 -12t-10 -5q-8 2 -23.5 8t-26.5 8q-18 4 -39.5 4.5t-33 4t-22.5 16.5
q-9 11 -224 302q-7 5 -10.5 2.5t-15.5 -18.5q-6 -9 -11 -14q-43 -57 -146 -187.5t-112 -137.5q-7 -6 -10 22q-8 55 -1 85q1 3 2 4q72 110 293 405q3 5 5 5q5 1 73 -85.5t181.5 -235t131.5 -171.5z" />
    <glyph glyph-name="n" unicode="n" horiz-adv-x="769" 
d="M71 395q0 29 -5 47t-9.5 22t-13.5 10q-7 4 -7 15t8 12q21 3 66 1t62 -7q18 -5 83.5 -64.5t156.5 -148t113 -108.5q26 -24 41.5 -19.5t17.5 39.5q8 176 3 264q0 14 -2.5 27t-2.5 14.5t3 9.5q5 2 9 0t18 -5.5t29 -3.5q6 0 21 2.5t22 3.5t10 -2q4 -55 5 -269.5t-4 -230.5
q-2 -4 -6 -5.5t-11 -1t-11 0.5t-12.5 2t-9.5 2q-6 1 -25 2t-25 4q-11 4 -167 138t-214 191q-16 14 -25 7t-9 -25q0 -4 -1 -7v-100q0 -100 4 -179q3 -70 -1 -72q-2 -1 -8 1q-29 13 -61 59.5t-38 87.5q-12 77 -4 279v7z" />
    <glyph glyph-name="o" unicode="o" 
d="M154 140q1 -6 2 -15q0 -17 3.5 -26t10.5 -12t17 -3.5t25 0.5q254 1 326 9q17 2 31.5 15t15.5 39q1 55 -3 223q-1 3 -1 7q-1 20 -12 27.5t-40 7.5q-22 0 -75 -1.5t-80 -2.5q-41 -1 -105 -2.5t-80 -1.5q-35 -1 -36 -47q-2 -54 1 -217zM673 494q6 -5 9 -37q1 -13 3 -57
q5 -107 1 -301q-1 -42 -30 -64t-65 -26q-125 -16 -440 -9q-74 -1 -117 -1q-6 0 -10.5 8t-0.5 10q22 14 28 31t6 46q0 2 -2 72.5t-2 123.5t3 114q2 43 30 66.5t62 25.5q223 11 430 8q85 -1 95 -10z" />
    <glyph glyph-name="p" unicode="p" horiz-adv-x="718" 
d="M92 270q0 78 -1 156q-1 24 -8 31q-3 3 -7 6t-6.5 5t-4.5 6q-12 21 11 22q89 4 252.5 4.5t279.5 -5.5q18 -2 27.5 -17t11.5 -51q7 -131 -7 -160q-5 -10 -30.5 -36.5t-34.5 -32.5q-13 -8 -68 -11q-13 0 -130 -0.5t-161 0.5q-31 0 -30 -49q2 -83 2 -124q0 -10 -7 -13
t-16 -1.5t-17 -0.5q-14 -4 -46 -24q-5 -3 -8 0.5t-3 11.5q-3 49 1 283zM210 423q-19 -2 -19 -24q0 -33 -1 -129q248 -1 263 -1q49 0 67.5 20t19.5 59q1 45 -14.5 59t-73.5 14q-14 1 -242 2z" />
    <glyph glyph-name="q" unicode="q" horiz-adv-x="909" 
d="M576 101q-13 11 -28 24q-28 22 -60 52.5t-37 35.5q-12 9 14 14q44 10 89 3q7 -1 10 -3q8 -5 42 -32q0 63 -3 179q-1 3 -1 6q-1 20 -12 28t-39 8q-22 -1 -75.5 -2t-80.5 -2q-41 -1 -104.5 -2.5t-80.5 -2.5q-34 -1 -36 -46q-1 -54 2 -218q1 -6 1 -15q1 -16 4.5 -25t10 -12
t17 -3.5t24.5 0.5q255 1 327 9q8 1 16 4zM695 498q6 -6 8 -38q1 -12 3 -56q5 -105 2 -291q103 -81 128 -96q11 -6 -7 -15q-41 -18 -110 6q-17 7 -34 15q-7 4 -16 10q-24 -16 -57 -21q-142 -18 -505 -9h-52q-5 0 -10 7.5t0 10.5q21 14 27.5 31t5.5 46q0 2 -2 72.5t-1.5 123.5
t2.5 114q2 43 30.5 66.5t62.5 24.5q222 11 429 9q85 -1 96 -10z" />
    <glyph glyph-name="r" unicode="r" horiz-adv-x="788" 
d="M68 269v156q-2 24 -9 31q-3 3 -7 5.5t-6 5t-4 5.5q-13 21 10 22q89 4 253 5t280 -6q18 -2 27.5 -17t11.5 -50q7 -132 -7 -161q-5 -9 -30.5 -35.5t-35.5 -33.5q-13 -8 -67 -11h-6q-3 -5 0 -12.5t10 -12.5q5 -4 103 -80t124 -91q12 -7 -7 -15q-40 -19 -109 6q-17 6 -34 15
q-43 22 -138 101q-27 23 -59 53.5t-38 34.5q-101 0 -138 1q-30 0 -29 -48q2 -84 1 -125q0 -10 -7 -13t-15.5 -1.5t-16.5 -0.5q-14 -4 -47 -24q-4 -3 -7 0.5t-4 11.5q-3 49 1 284zM168 398q0 -34 -2 -129q249 -2 264 -2q49 0 67.5 20t19.5 59q1 45 -15 59t-73 15
q-14 0 -243 2q-18 -3 -18 -24z" />
    <glyph glyph-name="s" unicode="s" horiz-adv-x="767" 
d="M56 210q-3 73 3 199q2 44 30.5 67.5t62.5 25.5q259 13 453 9q3 -1 5 -1q45 0 67 -1.5t21 -6.5q-6 -21 -41.5 -45t-84.5 -33q-86 -16 -317 -14q-43 -1 -61 -1q-35 -1 -37 -47q-1 -29 -1 -59q60 3 261 5q50 0 117.5 -0.5t109.5 -1.5l42 -1q10 -1 10 -4q-1 -141 -2 -181
q-1 -21 -8 -37q-11 -28 -40 -51t-83 -27q-95 -7 -337 -8q-124 -1 -188 2q-9 0 -13.5 3t-0.5 8q23 33 27 48q3 8 1 16.5t1.5 15.5t14.5 7q37 1 88 0t62 -1q6 0 11 -1q52 2 192 3q39 0 134 2q22 3 30.5 19.5t8.5 47.5q1 19 0 46q-319 -8 -442 -6q-96 -3 -96 3z" />
    <glyph glyph-name="t" unicode="t" horiz-adv-x="645" 
d="M330 22q4 -73 -1 -75q-2 -1 -8 2q-35 15 -62.5 46t-32.5 72q-9 71 -6 328q-134 -2 -169 4q-20 3 -27 17q-5 11 -5.5 30.5t4.5 28.5q7 13 24 17q41 9 268 10q33 0 83 1t75.5 1t53 -0.5t38.5 -2.5t10 -6q-6 -23 -40.5 -49.5t-83.5 -36.5q-36 -7 -124 -11q-1 -188 -1 -189
q1 -104 4 -187z" />
    <glyph glyph-name="u" unicode="u" horiz-adv-x="790" 
d="M99 482q6 -3 21 -6.5t24.5 -6.5t9.5 -7q0 -19 -1.5 -143t-0.5 -171q0 -26 13 -38.5t29 -14.5q73 -8 330 -9h10h10h8t8 1t6 2.5t5 3.5t3.5 5.5t3.5 7.5t1 10q0 18 1 59.5t1 65.5q1 33 1.5 82t0.5 74t1 52t3.5 38t5.5 10q24 -6 49.5 -41t34.5 -83q12 -68 7 -307
q5 -31 34 -49q5 -3 0 -11t-11 -8q-39 0 -106 1q-331 -5 -460 12q-36 4 -65.5 26t-30.5 64q-4 194 1 301q2 44 3 56q3 35 8 40q3 2 8 0t15.5 -7.5t18.5 -8.5z" />
    <glyph glyph-name="v" unicode="v" horiz-adv-x="770" 
d="M13 482q-5 6 0.5 12t10.5 4q7 -2 23 -7.5t27 -8.5q18 -4 39.5 -4.5t33 -4t22.5 -17.5q8 -11 221 -303q7 -6 10.5 -3.5t15.5 18.5q7 9 11 15q44 56 148 185.5t113 136.5q7 6 10 -22q7 -55 0 -85q-1 -3 -2 -4q-73 -109 -296 -402q-3 -5 -5 -6q-6 0 -73 87t-179 236.5
t-130 172.5z" />
    <glyph glyph-name="w" unicode="w" horiz-adv-x="1103" 
d="M18 492q-5 6 0.5 12t10.5 4q7 -2 23 -8t27 -8q18 -4 39.5 -4.5t33 -4t22.5 -17.5q26 -34 132.5 -181.5t119.5 -164.5q7 -9 -4.5 -65.5t-21.5 -58.5q-6 0 -73 86.5t-179 236.5t-130 173zM345 485q-4 6 1 12t11 5q7 -2 22.5 -8t27.5 -9q17 -4 38.5 -4t33.5 -4t22 -18
q9 -10 221 -303q7 -5 11 -2.5t16 18.5q6 9 10 14q44 56 148 185.5t113 137.5q7 6 11 -23q7 -54 -1 -84q-1 -3 -1 -4q-73 -109 -296 -403q-3 -5 -6 -5q-5 -1 -72.5 86t-179.5 236.5t-130 172.5z" />
    <glyph glyph-name="x" unicode="x" horiz-adv-x="729" 
d="M659 519q2 0 -30 -37t-87 -98.5t-113 -123.5q177 -158 202 -187q17 -20 -2.5 -49t-44.5 -30q-22 -1 -226 189q-180 -192 -196 -190q-23 1 -51 28t-13 46q35 43 181 190q-43 41 -127.5 121t-112.5 106q-6 6 -1.5 13.5t10.5 6.5q9 -1 27 -4.5t31 -3.5q9 -1 23 -1.5t18.5 -1
t12 -1.5t11.5 -4l10 -7.5t14 -12.5q12 -10 156 -139q110 108 148 134q48 33 93.5 46.5t66.5 9.5z" />
    <glyph glyph-name="y" unicode="y" horiz-adv-x="779" 
d="M69 489q-6 6 -1 13.5t11 6.5q9 -1 27.5 -5t31.5 -5q10 0 24.5 -1t18.5 -1.5t12 -2t12 -4.5t10 -8t15 -13q22 -21 78.5 -71t80.5 -74q115 108 154 133q50 33 97 46t69 8q4 -1 -121 -134t-257 -266t-146 -131q-24 2 -52 30.5t-12 47.5q38 45 193 195q-30 26 -69.5 63.5
t-94.5 92.5t-81 80z" />
    <glyph glyph-name="z" unicode="z" horiz-adv-x="686" 
d="M151 403q-71 -2 -72 3q0 1 2 5q14 24 60.5 49.5t86.5 30.5q65 8 175 10.5t173 0.5q28 -1 30 -34q0 -9 -3 -25.5t-7 -23.5q-2 -6 -5 -9q-14 -19 -72.5 -70t-144 -120.5t-100.5 -81.5q-24 -20 -19.5 -32t38.5 -14q147 -7 253 -6q12 0 26 0.5t21 1t13.5 0t9.5 -2.5
t-10.5 -17.5t-39.5 -34.5t-50 -28q-23 -9 -209 -8t-199 11q-8 7 -1 39q1 5 2.5 19t3.5 19q4 9 135.5 128t187.5 162q13 13 6.5 20t-23.5 7q-5 0 -9 1q-43 1 -82 1q-99 1 -177 -1z" />
    <glyph glyph-name="uniF8FE" unicode="&#xf8fe;" horiz-adv-x="300" 
 />
    </font>
</defs>
</svg>
